<svg height='300px' width='300px'  fill="#000000" xmlns="http://www.w3.org/2000/svg" xmlns:xlink="http://www.w3.org/1999/xlink" version="1.1" x="0px" y="0px" viewBox="0 0 100 100" enable-background="new 0 0 100 100" xml:space="preserve"><g><rect x="23.4" y="8.3" width="4" height="8.6"></rect><rect x="72.6" y="8.3" width="4" height="8.6"></rect><path d="M87.9,11.9h-7.4v5v4h-4h-4h-4v-4v-5H31.4v5v4h-4h-4h-4v-4v-5h-7.4c-2.2,0-4,1.8-4,4v71.7c0,2.2,1.8,4,4,4h75.8   c2.2,0,4-1.8,4-4V15.9C91.9,13.7,90.1,11.9,87.9,11.9z M87.9,87.7H12.1V35.9h75.8V87.7z"></path></g></svg>