<svg height='300px' width='300px'  fill="#000000" xmlns="http://www.w3.org/2000/svg" xmlns:xlink="http://www.w3.org/1999/xlink" xml:space="preserve" version="1.1" style="shape-rendering:geometricPrecision;text-rendering:geometricPrecision;image-rendering:optimizeQuality;" viewBox="0 0 3.738 3.738" x="0px" y="0px" fill-rule="evenodd" clip-rule="evenodd"><defs><style type="text/css">
   
    .fil0 {fill:#000000;fill-rule:nonzero}
   
  </style></defs><g><path class="fil0" d="M0.234 1.869c0,0.064 -0.053,0.117 -0.117,0.117 -0.065,0 -0.117,-0.053 -0.117,-0.117 0,-0.516 0.209,-0.983 0.547,-1.322 0.339,-0.338 0.806,-0.547 1.322,-0.547 0.309,0 0.601,0.075 0.858,0.209 0.174,0.09 0.333,0.207 0.47,0.345l0 -0.26c0,-0.064 0.052,-0.117 0.117,-0.117 0.064,0 0.116,0.053 0.116,0.117l0 0.583 0 0.001c0,0.065 -0.052,0.117 -0.116,0.117l-0.584 0c-0.065,0 -0.117,-0.052 -0.117,-0.117 0,-0.064 0.052,-0.117 0.117,-0.117l0.342 0c-0.129,-0.14 -0.281,-0.257 -0.452,-0.345 -0.224,-0.117 -0.48,-0.182 -0.751,-0.182 -0.452,0 -0.861,0.183 -1.156,0.479 -0.296,0.295 -0.479,0.704 -0.479,1.156zm0.307 1.575c0,0.064 -0.052,0.116 -0.117,0.116 -0.064,0 -0.117,-0.052 -0.117,-0.116l0 -0.582 0 -0.002 0 0 0 -0.003 0 0 0 -0.003 0 0 0.001 -0.003 0 0 0 -0.003 0 0 0 -0.003 0 0 0.001 -0.003 0 0 0 -0.003 0 0 0.001 -0.003 0 0 0 -0.003 0 0 0.001 -0.003 0 0 0.001 -0.002 0 0 0 -0.003 0 0 0.001 -0.003 0 0 0.001 -0.003 0 0 0.001 -0.002 0 0 0.001 -0.003 0 0 0.002 -0.002 0 -0.001 0.001 -0.002 0 0 0.001 -0.003 0 0 0.001 -0.002 0 0 0.002 -0.003 0 0 0.001 -0.002 0 0 0.002 -0.002 0 0 0.001 -0.003 0 0 0.002 -0.002 0 0 0.001 -0.002 0 0 0.002 -0.003 0 0 0.002 -0.002 0 0 0.002 -0.002 0 0 0.002 -0.002 0 0 0.001 -0.002 0 0 0.002 -0.002 0 0 0.002 -0.002 0 0 0.002 -0.002 0.001 0 0.002 -0.002 0 0 0.002 -0.002 0 0 0.002 -0.001 0 0 0.002 -0.002 0 0 0.002 -0.002 0 0 0.003 -0.001 0 0 0.002 -0.002 0 0 0.002 -0.001 0 0 0.003 -0.002 0 0 0.002 -0.001 0 0 0.003 -0.001 0 0 0.002 -0.002 0 0 0.003 -0.001 0 0 0.003 -0.001 0 0 0.002 -0.001 0 0 0.003 -0.001 0 0 0.003 -0.001 0 0 0.002 -0.001 0 0 0.003 -0.001 0 0 0.003 -0.001 0 0 0.003 0 0 0 0.002 -0.001 0.001 0 0.002 0 0 0 0.003 -0.001 0 0 0.003 0 0 0 0.003 -0.001 0 0 0.003 0 0 0 0.003 0 0 0 0.003 0 0 0 0.003 0 0 0 0.002 0 0.582 0c0.065,0 0.117,0.052 0.117,0.117 0,0.064 -0.052,0.116 -0.117,0.116l-0.342 0c0.128,0.139 0.28,0.256 0.449,0.344 0.225,0.118 0.482,0.184 0.754,0.184 0.451,0 0.86,-0.183 1.156,-0.479 0.296,-0.296 0.479,-0.705 0.479,-1.156 0,-0.065 0.052,-0.117 0.117,-0.117 0.064,0 0.117,0.052 0.117,0.117 0,0.516 -0.21,0.983 -0.548,1.321 -0.338,0.338 -0.805,0.548 -1.321,0.548 -0.311,0 -0.604,-0.076 -0.862,-0.211 -0.173,-0.09 -0.33,-0.206 -0.466,-0.344l0 0.261z"></path></g></svg>