<svg height='300px' width='300px'  fill="#000000" xmlns="http://www.w3.org/2000/svg" xmlns:xlink="http://www.w3.org/1999/xlink" version="1.1" x="0px" y="0px" viewBox="0 0 64 64" style="enable-background:new 0 0 64 64;" xml:space="preserve"><g><path d="M32,3.9c7.7,0,14.7,3.1,19.8,8.2s8.2,12.1,8.2,19.8S57,46.7,51.8,51.8S39.7,60.1,32,60.1S17.3,57,12.2,51.8   S3.9,39.7,3.9,32S7,17.3,12.2,12.2S24.3,3.9,32,3.9L32,3.9z M44,11.4c0.9,0.5,1.2,1.7,0.6,2.6c-0.5,1-1.7,1.2-2.6,0.7   c-1-0.5-1.2-1.7-0.7-2.7C41.7,11.2,43,10.8,44,11.4L44,11.4z M22,49.2c1,0.5,1.2,1.7,0.7,2.7c-0.5,0.9-1.7,1.2-2.7,0.7   c-0.9-0.6-1.2-1.9-0.6-2.7C19.9,49,21.1,48.7,22,49.2L22,49.2z M20,11.4c1-0.6,2.2-0.2,2.7,0.6c0.5,1,0.2,2.2-0.7,2.7   c-0.9,0.5-2.1,0.2-2.6-0.7C18.8,13.2,19.1,11.9,20,11.4L20,11.4z M42,49.2c0.9-0.5,2.1-0.2,2.6,0.7c0.6,0.9,0.2,2.1-0.6,2.7   c-1,0.5-2.2,0.1-2.7-0.7C40.7,51,41,49.7,42,49.2L42,49.2z M52.7,44c-0.6,0.9-1.9,1.2-2.7,0.6c-1-0.5-1.2-1.7-0.7-2.6   c0.5-1,1.7-1.2,2.7-0.7C52.8,41.7,53.2,43,52.7,44L52.7,44z M14.8,22c-0.5,1-1.7,1.2-2.7,0.7c-0.9-0.5-1.2-1.7-0.6-2.7   c0.5-0.9,1.7-1.2,2.6-0.6C15,19.9,15.3,21.1,14.8,22L14.8,22z M52.7,20c0.5,1,0.1,2.2-0.7,2.7c-1,0.5-2.2,0.2-2.7-0.7   c-0.5-0.9-0.2-2.1,0.7-2.6C50.8,18.8,52.1,19.1,52.7,20L52.7,20z M14.8,42c0.5,0.9,0.2,2.1-0.7,2.6c-0.9,0.6-2.1,0.2-2.6-0.6   c-0.6-1-0.2-2.2,0.6-2.7C13,40.7,14.3,41,14.8,42L14.8,42z M55.8,32c0,1.1-0.9,2-2,2c-1,0-2-0.9-2-2c0-1.1,1-2,2-2   C55,30,55.8,30.9,55.8,32L55.8,32z M12.2,32c0,1.1-1,2-2,2c-1.1,0-2-0.9-2-2c0-1.1,0.9-2,2-2C11.2,30,12.2,30.9,12.2,32L12.2,32z    M32,8.2c1.1,0,2,0.9,2,2c0,1-0.9,2-2,2c-1.1,0-2-1-2-2C30,9,30.9,8.2,32,8.2L32,8.2z M32,51.8c1.1,0,2,1,2,2c0,1.1-0.9,2-2,2   c-1.1,0-2-0.9-2-2C30,52.8,30.9,51.8,32,51.8L32,51.8z M31,33.9l-8.4,4.5c-0.6,0.4-1.2,0.1-1.5-0.4l0,0c-0.4-0.6-0.1-1.2,0.4-1.5   l8.4-4.5l0,0c0-0.7,0.4-1.5,1-1.9V15.3c0-0.6,0.5-1.1,1.1-1.1l0,0c0.6,0,1.1,0.5,1.1,1.1v14.9c0.6,0.4,1,1.1,1,1.9   c0,1.2-0.9,2.1-2.1,2.1C31.6,34.1,31.4,34.1,31,33.9L31,33.9z M50.3,13.7C45.6,8.9,39.1,6,32,6s-13.6,2.9-18.3,7.6S6,24.9,6,32   s2.9,13.6,7.6,18.3C18.4,55.1,24.9,58,32,58s13.6-2.9,18.3-7.6C55.1,45.6,58,39.1,58,32S55.1,18.4,50.3,13.7L50.3,13.7z"></path></g></svg>