<?xml version="1.0" ?><!DOCTYPE svg  PUBLIC '-//W3C//DTD SVG 1.1//EN'  'http://www.w3.org/Graphics/SVG/1.1/DTD/svg11.dtd'><svg enable-background="new 0 0 128 128" id="Layer_1" version="1.1" viewBox="0 0 128 128" xml:space="preserve" xmlns="http://www.w3.org/2000/svg" xmlns:xlink="http://www.w3.org/1999/xlink"><path d="M28.2,46.3L11.9,62.7c-0.4,0.4-0.6,0.9-0.6,1.4c0,0.6,0.2,1.1,0.6,1.4l16.2,16.2c0.8,0.8,2,0.8,2.8,0  c0.4-0.4,0.6-0.9,0.6-1.4s-0.2-1.1-0.6-1.4L18.1,66h63.7c1.1,0,2-0.9,2-2s-0.9-2-2-2H18.1l12.9-12.9c0.4-0.4,0.6-0.9,0.6-1.4  s-0.2-1-0.6-1.4C30.3,45.5,29,45.5,28.2,46.3z" fill="#2C3E50"/><path d="M95,16H51c-5.5,0-10,4.5-10,10v16.3h4V26c0-3.3,2.7-6,6-6h44c3.3,0,6,2.7,6,6v77c0,3.3-2.7,6-6,6H51  c-3.3,0-6-2.7-6-6V85.7h-4V103c0,5.5,4.5,10,10,10h44c5.5,0,10-4.5,10-10V26C105,20.5,100.5,16,95,16z" fill="#3B97D3"/></svg>